# xmcd
#
# Track frame offsets:
# 150
# 46507
# 99207
# 138515
# 209065
# 251117
# 272990
# 304147
#
# Disc length: 4602 seconds
#
#
# Revision: 1
# Processed by: cddbd v1.5.2PL0 Copyright (c) Steve Scherf et al.
# Submitted via: FreeRIP 2.945 
#
DISCID=7211f808
DTITLE=Bournemouth SO - Hickox - Delius Orchestral Works
DYEAR=1995
DGENRE=Classical
TTITLE0=The Walk to the Paradise Garden - Lento
TTITLE1=A Dance Rhapsody No.1
TTITLE2=A Dance Rhapsody No.2
TTITLE3=In a Summer Garden: Andante - Animato
TTITLE4=North Country Sketches -I- Autumn: The Wind Soughs in the Trees. Slow, with even flowing movement
TTITLE5=North Country Sketches -II- Winter Landscape: Slow
TTITLE6=North Country Sketches -III- Dance: Mazurka tempo
TTITLE7=North Country Sketches -IV- The March of Spring: Woodlands, Meadows and Silent Moors. With a light, lively and throbbing movement, never dragging
EXTD=
EXTT0=
EXTT1=
EXTT2=
EXTT3=
EXTT4=
EXTT5=
EXTT6=
EXTT7=
PLAYORDER=
